<svg xmlns="http://www.w3.org/2000/svg" width="357" height="255" viewBox="0 0 357 255">
    <defs>
        <linearGradient id="a" x1="50%" x2="50%" y1="0%" y2="100%">
            <stop offset="0%" stop-color="#FF9485"/>
            <stop offset="100%" stop-color="#FF676E"/>
        </linearGradient>
        <linearGradient id="b" x1="50%" x2="50%" y1="7.264%" y2="151.058%">
            <stop offset="0%" stop-color="#D0F6FF"/>
            <stop offset="100%" stop-color="#8BE2F7"/>
        </linearGradient>
        <linearGradient id="c" x1="50%" x2="50%" y1="0%" y2="91.848%">
            <stop offset="0%" stop-color="#EAFCFF"/>
            <stop offset="100%" stop-color="#FFF"/>
        </linearGradient>
        <linearGradient id="d" x1="50%" x2="50%" y1="0%" y2="143.743%">
            <stop offset="0%" stop-color="#FFC8C0"/>
            <stop offset="100%" stop-color="#FF676E"/>
        </linearGradient>
        <linearGradient id="e" x1="50%" x2="50%" y1="61.924%" y2="100%">
            <stop offset="0%" stop-color="#FFA79A"/>
            <stop offset="100%" stop-color="#FF676E"/>
        </linearGradient>
        <linearGradient id="f" x1="50%" x2="50%" y1="0%" y2="100%">
            <stop offset="0%" stop-color="#FF9485"/>
            <stop offset="100%" stop-color="#FF676E"/>
        </linearGradient>
        <linearGradient id="g" x1="8.382%" x2="56.57%" y1="31.303%" y2="50%">
            <stop offset="0%" stop-color="#CFE49F"/>
            <stop offset="100%" stop-color="#A9D386"/>
        </linearGradient>
        <linearGradient id="h" x1="34.868%" x2="66.726%" y1="24.564%" y2="80.418%">
            <stop offset="0%" stop-color="#6EAE7C"/>
            <stop offset="100%" stop-color="#0F575D"/>
        </linearGradient>
        <linearGradient id="i" x1="34.115%" x2="64.833%" y1="33.858%" y2="52.424%">
            <stop offset="0%" stop-color="#77D791"/>
            <stop offset="100%" stop-color="#4FA67E"/>
        </linearGradient>
        <linearGradient id="j" x1="50%" x2="50.935%" y1="85.87%" y2="36.497%">
            <stop offset="0%" stop-color="#2B3389"/>
            <stop offset="100%" stop-color="#444FB7"/>
        </linearGradient>
        <linearGradient id="k" x1="50%" x2="50%" y1="7.264%" y2="151.058%">
            <stop offset="0%" stop-color="#D0F6FF"/>
            <stop offset="100%" stop-color="#8BE2F7"/>
        </linearGradient>
        <linearGradient id="l" x1="50%" x2="50%" y1="7.264%" y2="151.058%">
            <stop offset="0%" stop-color="#D0F6FF"/>
            <stop offset="100%" stop-color="#8BE2F7"/>
        </linearGradient>
        <linearGradient id="m" x1="50%" x2="50%" y1="7.264%" y2="151.058%">
            <stop offset="0%" stop-color="#D0F6FF"/>
            <stop offset="100%" stop-color="#8BE2F7"/>
        </linearGradient>
        <linearGradient id="n" x1="50%" x2="50%" y1="0%" y2="100%">
            <stop offset="0%" stop-color="#4DBCFA"/>
            <stop offset="100%" stop-color="#1486DB"/>
        </linearGradient>
        <linearGradient id="o" x1="50%" x2="50%" y1="-27.364%" y2="100%">
            <stop offset="0%" stop-color="#C0E4FD"/>
            <stop offset="100%" stop-color="#72B9FE"/>
        </linearGradient>
        <linearGradient id="p" x1="82.577%" x2="82.577%" y1="-52.951%" y2="186.665%">
            <stop offset="0%" stop-color="#1533B6"/>
            <stop offset="100%" stop-color="#356BE9"/>
        </linearGradient>
        <linearGradient id="q" x1="82.577%" x2="82.577%" y1="-52.951%" y2="186.665%">
            <stop offset="0%" stop-color="#1533B6"/>
            <stop offset="100%" stop-color="#356BE9"/>
        </linearGradient>
        <linearGradient id="r" x1="50%" x2="50%" y1="0%" y2="100%">
            <stop offset="0%" stop-color="#1D2A78"/>
            <stop offset="100%" stop-color="#12033B"/>
        </linearGradient>
        <linearGradient id="s" x1="82.577%" x2="82.577%" y1="-52.951%" y2="186.665%">
            <stop offset="0%" stop-color="#1533B6"/>
            <stop offset="100%" stop-color="#356BE9"/>
        </linearGradient>
        <linearGradient id="t" x1="50%" x2="50%" y1="0%" y2="100%">
            <stop offset="0%" stop-color="#1D2A78"/>
            <stop offset="100%" stop-color="#12033B"/>
        </linearGradient>
        <linearGradient id="u" x1="50%" x2="50%" y1="0%" y2="100%">
            <stop offset="0%" stop-color="#FF9485"/>
            <stop offset="100%" stop-color="#FF676E"/>
        </linearGradient>
    </defs>
    <g fill="none" fill-rule="nonzero">
        <path fill="url(#a)" d="M2.851 0H117.48a2.849 2.849 0 0 1 2.852 2.846v107.008a2.849 2.849 0 0 1-2.852 2.846H2.851A2.849 2.849 0 0 1 0 109.854V2.846A2.849 2.849 0 0 1 2.851 0z" transform="translate(226.404)"/>
        <path fill="#F7F5FF" d="M234.958 8.538h21.957v5.692h-21.957z"/>
        <path fill="#FFF" d="M234.958 22.768h102.473v88.225H234.958z"/>
        <path fill="#52D7FD" d="M243.513 33.867h5.703V91.07h-5.703V33.867zm15.968 2.846h5.703V91.07h-5.703V36.713zm15.968-5.692h5.703v60.05h-5.703V31.02zm15.683 8.538h5.703V91.07h-5.703V39.559zM307.1 31.02h5.703v60.05H307.1V31.02zm15.968 5.692h5.703V91.07h-5.703V36.713z"/>
        <path fill="url(#b)" d="M2.514 26.348c0 .693-.563 1.254-1.257 1.254a1.256 1.256 0 1 1 1.257-1.254zm0-5.019c0 .693-.563 1.255-1.257 1.255a1.256 1.256 0 1 1 1.257-1.255zm0-5.018c0 .692-.563 1.254-1.257 1.254a1.256 1.256 0 1 1 1.257-1.254zm0-5.02a1.256 1.256 0 1 1-1.257-1.255c.694.001 1.257.563 1.257 1.256zm0-5.018c0 .693-.563 1.255-1.257 1.255a1.256 1.256 0 1 1 1.257-1.255zm0-5.018c0 .693-.563 1.254-1.257 1.254a1.256 1.256 0 1 1 1.257-1.254zm5.029 25.093c0 .693-.563 1.254-1.257 1.254a1.256 1.256 0 1 1 1.257-1.254zm0-5.019c0 .693-.563 1.255-1.257 1.255a1.256 1.256 0 1 1 1.257-1.255zm0-5.018c0 .692-.563 1.254-1.257 1.254a1.256 1.256 0 1 1 1.257-1.254zm0-5.02a1.256 1.256 0 1 1-1.257-1.255c.694.001 1.257.563 1.257 1.256zm0-5.018c0 .693-.563 1.255-1.257 1.255a1.256 1.256 0 1 1 1.257-1.255zm0-5.018c0 .693-.563 1.254-1.257 1.254a1.256 1.256 0 1 1 1.257-1.254zm5.028 25.093c0 .693-.562 1.254-1.257 1.254a1.256 1.256 0 1 1 1.257-1.254zm0-5.019c0 .693-.562 1.255-1.257 1.255a1.256 1.256 0 1 1 1.257-1.255zm0-5.018c0 .692-.562 1.254-1.257 1.254a1.256 1.256 0 1 1 1.257-1.254zm0-5.02c0 .694-.562 1.256-1.257 1.256a1.256 1.256 0 1 1 1.257-1.255zm0-5.018c0 .693-.562 1.255-1.257 1.255a1.256 1.256 0 1 1 1.257-1.255zm0-5.018c0 .693-.562 1.254-1.257 1.254a1.256 1.256 0 1 1 1.257-1.254zM17.6 26.348c0 .693-.563 1.254-1.257 1.254a1.256 1.256 0 1 1 1.257-1.254zm0-5.019c0 .693-.563 1.255-1.257 1.255a1.256 1.256 0 1 1 1.257-1.255zm0-5.018c0 .692-.563 1.254-1.257 1.254a1.256 1.256 0 1 1 1.257-1.254zm0-5.02a1.256 1.256 0 1 1-1.257-1.255c.694.001 1.257.563 1.257 1.256zm0-5.018c0 .693-.563 1.255-1.257 1.255A1.256 1.256 0 1 1 17.6 6.273zm0-5.018c0 .693-.563 1.254-1.257 1.254A1.256 1.256 0 1 1 17.6 1.255zm5.029 25.093c0 .693-.563 1.254-1.258 1.254a1.256 1.256 0 1 1 1.258-1.254zm0-5.019c0 .693-.563 1.255-1.258 1.255a1.256 1.256 0 1 1 1.258-1.255zm0-5.018c0 .692-.563 1.254-1.258 1.254a1.256 1.256 0 1 1 1.258-1.254zm0-5.02c0 .694-.563 1.256-1.258 1.256a1.256 1.256 0 1 1 1.258-1.255zm0-5.018c0 .693-.563 1.255-1.258 1.255a1.256 1.256 0 1 1 1.258-1.255zm0-5.018c0 .693-.563 1.254-1.258 1.254a1.256 1.256 0 1 1 1.258-1.254zm5.028 25.093c0 .693-.563 1.254-1.257 1.254a1.256 1.256 0 1 1 1.257-1.254zm0-5.019c0 .693-.563 1.255-1.257 1.255a1.256 1.256 0 1 1 1.257-1.255zm0-5.018c0 .692-.563 1.254-1.257 1.254a1.256 1.256 0 1 1 1.257-1.254zm0-5.02a1.256 1.256 0 1 1-1.257-1.255c.694.001 1.257.563 1.257 1.256zm0-5.018c0 .693-.563 1.255-1.257 1.255a1.256 1.256 0 1 1 1.257-1.255zm0-5.018c0 .693-.563 1.254-1.257 1.254a1.256 1.256 0 1 1 1.257-1.254z" transform="translate(195.894 19.068)"/>
        <path fill="url(#c)" d="M2.851 0H117.48a2.849 2.849 0 0 1 2.852 2.846v83.102a2.849 2.849 0 0 1-2.852 2.846H2.851A2.849 2.849 0 0 1 0 85.948V2.846A2.849 2.849 0 0 1 2.851 0z" transform="translate(22.241)"/>
        <path fill="url(#d)" d="M17.394 38.99h28.514v35.574H17.394z" transform="translate(22.241)"/>
        <path fill="url(#e)" d="M45.908 26.752h28.515v47.812H45.908z" transform="translate(22.241)"/>
        <path fill="url(#f)" d="M74.423 14.514h28.514v60.05H74.423z" transform="translate(22.241)"/>
        <g>
            <path fill="url(#g)" d="M56.744 53.554c-16.049 7.234-28.879 7.142-38.491-.275C8.641 45.862 2.556 35.299 0 21.593c30.046-9.006 48.96 1.648 56.744 31.96z" transform="translate(7.129 96.478)"/>
            <path fill="#FFF" d="M40.176 137.025a5004.521 5004.521 0 0 0-11.554-6.52l-9.833 2.35a.325.325 0 1 1-.151-.633l9.15-2.186a9451.753 9451.753 0 0 0-17.642-9.896.326.326 0 0 1 .317-.568 7251.437 7251.437 0 0 1 29.544 16.61l-1.017-9.985c-.044-.431.602-.497.646-.066l1.064 10.443c10.51 5.952 17.42 9.935 20.735 11.951a.326.326 0 0 1-.337.556c-1.983-1.206-5.26-3.12-9.828-5.74a.328.328 0 0 1-.038.016l-8.986 3.287a.325.325 0 1 1-.223-.611l8.512-3.114c-2.92-1.673-6.339-3.618-10.255-5.835a.305.305 0 0 1-.104-.06z"/>
            <path fill="url(#h)" d="M53.15 62.611c-16.497-6.238-25.529-15.366-27.097-27.384C24.485 23.21 27.643 11.467 35.527 0c27.675 14.878 33.55 35.748 17.623 62.611z" transform="translate(7.129 96.478)"/>
            <path fill="#FFF" d="M53.483 133.278c3.222 11.65 5.292 19.36 6.21 23.132a.324.324 0 1 1-.63.154c-.549-2.257-1.512-5.93-2.89-11.018a.326.326 0 0 1-.038-.015l-8.654-4.04a.326.326 0 0 1 .273-.59l8.198 3.827c-.882-3.25-1.924-7.046-3.124-11.387a.307.307 0 0 1-.032-.116c-1.063-3.839-2.249-8.103-3.56-12.791l-8.591-5.302a.326.326 0 0 1-.107-.447.323.323 0 0 1 .446-.107l7.995 4.933a9498.17 9498.17 0 0 0-5.476-19.488.324.324 0 1 1 .623-.177 7287.307 7287.307 0 0 1 9.144 32.664l6.314-7.78c.273-.335.775.076.503.412l-6.604 8.136z"/>
            <path fill="url(#i)" d="M69.575 73.87c-13.623 11.156-26.03 14.397-37.222 9.724S12.563 70.293 6.558 57.71c26.677-16.5 47.683-11.114 63.017 16.16z" transform="translate(7.129 96.478)"/>
            <path fill="#FFF" d="M50.804 163.107c11.68 3.015 19.38 5.066 23.1 6.15a.324.324 0 1 1-.182.623c-2.226-.649-5.882-1.645-10.969-2.988a.328.328 0 0 1-.032.025l-7.825 5.49a.325.325 0 0 1-.373-.532l7.412-5.199c-3.25-.856-7.052-1.846-11.405-2.97a.305.305 0 0 1-.115-.03c-3.85-.993-8.129-2.09-12.837-3.292l-8.884 4.805a.325.325 0 0 1-.31-.57l8.268-4.472a9453.273 9453.273 0 0 0-19.584-4.97.324.324 0 1 1 .16-.63 7252.702 7252.702 0 0 1 32.806 8.361l-3.56-9.353c-.154-.405.453-.635.607-.231l3.723 9.783z"/>
        </g>
        <g transform="translate(56.173 49.52)">
            <path fill="url(#j)" d="M6.843 0h260.052c3.78 0 6.843 3.058 6.843 6.83V198.08c0 3.772-3.064 6.83-6.843 6.83H6.843c-3.78 0-6.843-3.058-6.843-6.83V6.83C0 3.058 3.064 0 6.843 0z"/>
            <path fill="url(#k)" d="M260.051 140.363v50.886H13.687l34.827-5.138 34.976-13.66h34.902l35.243-17.745h34.784l35.343-31.244h36.077z"/>
            <path fill="#FFF" d="M13.687 13.66H260.05v95.625H13.687z"/>
            <path fill="url(#l)" d="M109.153 27.321h137.211v8.197H109.153V27.32zm0 60.107h137.211v8.196H109.153v-8.196zm0-20.15h137.211v8.197H109.153v-8.196zm0-20.149h137.211v8.196H109.153V47.13z"/>
            <path fill="#52D7FD" d="M109.153 27.321h37.981v8.197h-37.981zM109.153 87.428h78.984v8.196h-78.984z"/>
            <path fill="#0737A3" d="M109.153 67.279h50.4v8.196h-50.4z"/>
            <path fill="#00ADFF" d="M109.153 47.13h64.6v8.195h-64.6z"/>
            <path fill="#FFF" d="M13.858 191.063l-.342-.004.684-67.774.342.004-.684 67.774zm34.902 0l-.343-.004.685-67.774.342.004-.684 67.774zm34.901 0l-.342-.004.684-67.774.343.004-.685 67.774zm34.902 0l-.342-.004.684-67.774.342.004-.684 67.774zm34.901 0l-.342-.004.685-67.774.342.004-.685 67.774zm34.902 0l-.342-.004.684-67.774.342.004-.684 67.774zm34.902 0l-.343-.004.685-67.774.342.004-.684 67.774z"/>
            <ellipse cx="61.249" cy="61.473" fill="url(#m)" rx="34.217" ry="34.152"/>
            <path fill="url(#n)" d="M61.249 95.624V61.473L36 38.423c-5.57 6.074-8.97 14.166-8.97 23.05 0 18.861 15.32 34.151 34.218 34.151z"/>
            <path fill="#0F55BE" d="M61.249 61.401v34.223c18.898 0 34.217-15.29 34.217-34.151L61.25 61.4z"/>
        </g>
        <g transform="translate(.105 154.38)">
            <path fill="#211D41" d="M39.202 22.709c-1.303 5.57-2.457 8.72-3.461 9.452l5.106 1.228 21.871-1.228-3.031-21.737-17.575-5.456-2.91 5.456V22.71z"/>
            <path fill="#F4B696" d="M20.964 50.696l9.225 2.26-3.637 9.288 3.637 11.31-7.672-1.643-3.59-9.21a1.705 1.705 0 0 1-.086-.94l2.123-11.065zM76.983 50.813l2.124 11.066c.06.315.03.641-.086.94l-3.59 9.21-7.672 1.643 3.637-11.31-3.637-9.287 9.224-2.262z"/>
            <path fill="url(#o)" d="M45.876 30.183h6.202c12.759 0 23.76 8.952 26.329 21.426l-9.674 2.91v25.817H28.751V54.52l-9.21-2.911c2.572-12.474 13.575-21.426 26.335-21.426z"/>
            <path fill="#0F55BE" d="M29.08 54.762l2.066-5.053V58zM68.215 54.762l-2.066 3.237v-8.29z"/>
            <path fill="#211D41" d="M25.864 52.752H71.73a.718.718 0 0 1 .715.79l-2.703 26.15a.718.718 0 0 1-.715.644H28.567a.718.718 0 0 1-.714-.644l-2.704-26.15a.718.718 0 0 1 .715-.79z"/>
            <path fill="#021038" d="M78.8 90.783c2.749-2.07 5.772-2.55 9.069-1.444 4.945 1.66 12.724 4.134 11.613 7.849-1.11 3.714-13.33 2.792-16.383 2.55-3.053-.242-5.359-3.172-5.825-4.908-.31-1.158.198-2.507 1.525-4.047z"/>
            <path fill="#F4B696" d="M73.673 89.481l8.193 1.108a3.07 3.07 0 0 1 2.607 3.626 3.77 3.77 0 0 1-3.874 3.042l-8.171-.373 1.245-7.403z"/>
            <ellipse cx="48.939" cy="65.328" fill="#757384" rx="3.137" ry="3.131"/>
            <path fill="url(#p)" d="M77.626 88.375l-4.314 9.097c-30.227-4.835-48.066-8.31-53.518-10.425-8.176-3.172-7.65-10.23-6.647-13.996 1.002-3.766 6.936-7.33 21.153-1.12 9.477 4.141 23.92 9.622 43.326 16.444z"/>
            <path fill="#F4B696" d="M44.603 20.958h9.343l.971 9.87a5.665 5.665 0 0 1-6.197 6.185 5.662 5.662 0 0 1-5.088-6.186l.971-9.87z"/>
            <path fill="#F4B696" d="M39.378 19.662c2.382 6.175 5.693 9.262 9.933 9.262s7.511-3.087 9.814-9.262c1.502-.565 2.2-1.425 2.09-2.58-.163-1.732-1.13-2.353-2.888-1.474v-4.98c-8.427 2.075-14.46 1.4-18.099-2.024.233 3.976.233 6.163 0 6.56-1.771-.296-2.745.215-2.923 1.531-.177 1.316.514 2.305 2.073 2.967z"/>
            <path fill="#021038" d="M20.79 90.783c1.328 1.54 1.836 2.89 1.525 4.047-.466 1.736-2.771 4.666-5.824 4.908S1.218 100.902.107 97.188c-1.11-3.715 6.668-6.19 11.614-7.85 3.296-1.106 6.32-.624 9.07 1.445z"/>
            <path fill="#F4B696" d="M25.917 89.481l1.245 7.403-8.172.373a3.77 3.77 0 0 1-3.902-3.215 3.07 3.07 0 0 1 2.635-3.453l8.194-1.108z"/>
            <path fill="url(#q)" d="M22.439 88.98l1.775 9.265C53.66 92.85 71.109 89.094 76.56 86.98c8.177-3.172 7.65-10.23 6.648-13.996-1.003-3.766-6.937-7.33-21.153-1.12-9.478 4.141-22.683 9.847-39.616 17.117z"/>
            <path fill="url(#r)" d="M41.473 10.127c1.735 2.557 7.32 3.576 16.753 3.058-1.036 3.354-1.022 6.04.043 8.06 1.598 3.03-3.536 8.296-.808 14.476 2.727 6.18 10.587-2.168 16.125 5.22-2.624-5.627-5.343-9.351-8.158-11.172-4.221-2.731-2.789-11.75-2.014-16.584.775-4.833-3.173-13.442-14.19-13.18C38.208.269 36.505 9.995 36.48 10.128c-1.228 6.502-.768 8.653 0 10.555.768 1.903 1.923 8.234-.624 11.318 3.875-.858 5.574-2.735 5.1-5.634-.714-4.347.619-5.836 0-9.788-.414-2.634-.241-4.784.517-6.45z"/>
        </g>
        <g>
            <path fill="#F4B696" d="M351.22 242.025v6.766h-6.777v-6.766zM331.266 242.025v6.766h-6.777v-6.766z"/>
            <path fill="#121958" d="M343.22 246.136l-9.454-89.965 22.137.121-3.869 89.844z"/>
            <path fill="url(#s)" d="M22.966 166.43l-4.076-48.138c-.3-3.553-.093-7.131.617-10.626l6.303-31.038 29.956.061-20.806 41.648-2.672 48.093h-9.322z" transform="translate(300.137 79.603)"/>
            <path fill="#F4B696" d="M338.98 107.643c-.778-3.743-1.817-5.784-3.116-6.121-1.95-.507-3.186-.724-3.218-2.694-.032-1.97-.644-2.548-1.5-2.82-.857-.27-1.674-1.41.43-3.048 1.404-1.093 1.984-3.324 1.74-6.695 7.877-3.854 12.672-2.951 14.385 2.708 1.712 5.66 1.733 10.266.062 13.82l.499 3.547-9.281 1.303z"/>
            <path fill="url(#t)" d="M47.79 22.958c-2.554.28-4.07.045-4.546-.703-.715-1.123-1.087-3.252-1.06-3.944.027-.692.836-.518 1.445-.603.608-.085 1.36-1.585.585-2.525-.775-.94-1.624-.656-2.023-.414-.4.242-1.494-.125-1.385-1.834.11-1.708.655-3.37-.452-3.215-1.107.156-7.41.316-8.33-3.845-.919-4.16 1.19-6.887 5.384-5.519 4.194 1.369 5.433 1.013 8.484 1.272 3.051.258 6.11.672 7.462 5.765 1.352 5.092-.348 8.019-2.468 10.233-2.12 2.215-1.492 2.714-1.677 3.791-.124.718-.596 1.232-1.419 1.541z" transform="translate(300.137 79.603)"/>
            <path fill="#F4B696" d="M313.943 95.043c-1 3.434-1.794 4.654-2.38 3.66-.88-1.493-4.533-4.522-6.888-5.225-2.354-.702-3.682-2.257-2.167-2.504 1.01-.164 2.43-.164 4.258 0-.463-1.127-1.696-2.09-3.327-4.06-1.63-1.97.91-1.418 3.327.305 2.418 1.724 4.775 4.002 5.159 5.129.256.751.928 1.65 2.018 2.695z"/>
            <path fill="#021038" d="M331.642 248.04v4.821c0 .83-.674 1.503-1.505 1.503h-13.348c-.53 0-.959-.524-.959-1.171 0-2.518 1.914-2.846 4.186-3.65l4.509-1.504h7.117zM351.596 248.04v4.821c0 .83-.674 1.503-1.506 1.503h-13.348c-.53 0-.958-.524-.958-1.171 0-2.518 1.913-2.846 4.185-3.65l4.509-1.504h7.118z"/>
            <path fill="#F4B696" d="M310.214 141.456l.996 5.501c-1.544.347-2.789.578-3.733.693-1.416.173-3.818 1.64-5.688.398-1.87-1.243-2.022-4.873-1.108-5.608.61-.49 1.698-.758 3.264-.804-.402-.915-.03-1.703 1.114-2.363.506.951.995 1.679 1.47 2.183.473.503 1.701.503 3.685 0z"/>
            <path fill="#D64F53" d="M341.807 107.762l-9.333 11.379-23.682-22.277 3.651-5.224z"/>
            <path fill="#A587FF" d="M338.518 161.759l-.798 2.042-.292-.114.797-2.042.293.114zm-1.936 4.959l-.798 2.041-.292-.113.797-2.042.293.114zm-1.936 4.958l-.798 2.042-.292-.114.797-2.041.293.113zm-1.937 4.96l-.797 2.04-.292-.113.797-2.042.292.114zm-1.936 4.958l-.797 2.042-.292-.114.797-2.042.292.114zm-1.936 4.959l-.435 1.115c-.12.307-.235.617-.345.927l-.296-.104c.111-.314.227-.626.349-.937l.435-1.115.292.114zm-1.673 5.03a31.097 31.097 0 0 0-.444 2.134l-.309-.053a31.41 31.41 0 0 1 .449-2.156l.304.074zm-.817 5.23c-.05.725-.075 1.452-.075 2.18h-.314c0-.735.025-1.469.077-2.201l.312.021zm0 5.301l.06 2.19-.314.01-.06-2.191.314-.009zm.146 5.32l.06 2.19-.313.01-.06-2.191.313-.01zm.147 5.32l.06 2.19-.313.009-.06-2.19.313-.01zm.146 5.32l.06 2.19-.313.009-.06-2.19.313-.01zm.147 5.32l.06 2.19-.313.009-.06-2.19.313-.01zm.146 5.32l.06 2.19-.313.009-.06-2.19.313-.01zm.147 5.32l.06 2.19-.313.009-.06-2.19.313-.01zm.146 5.32l.06 2.19-.313.009-.06-2.19.313-.01z"/>
            <path fill="url(#u)" d="M25.498 78.213l.965-11.374L9.2 68.387l-.486-7.173 17.75-5.858.83-14.394c0-13.943 9.827-14.88 19.335-14.88 6.34 0 9.678 3.726 10.016 11.18l-.878 42.483-30.27-1.532z" transform="translate(300.137 79.603)"/>
            <path fill="#4A1C25" d="M326.601 146.442l4.25-1.529a4.84 4.84 0 0 0 3.12-3.655l2.478-13.115-.154 18.083-9.917 2.935.223-2.72z"/>
        </g>
    </g>
</svg>
